<svg width="23" height="20" viewBox="0 0 23 20" xmlns="http://www.w3.org/2000/svg">
    <path
        d="M9.17681 2C7.98114 2 6.83444 2.42143 5.98897 3.17157C5.1435 3.92172 4.66852 4.93913 4.66852 6C4.66852 7.06087 5.1435 8.07828 5.98897 8.82843C6.83444 9.57857 7.98114 10 9.17681 10C10.3725 10 11.5192 9.57857 12.3646 8.82843C13.2101 8.07828 13.6851 7.06087 13.6851 6C13.6851 4.93913 13.2101 3.92172 12.3646 3.17157C11.5192 2.42143 10.3725 2 9.17681 2ZM2.41438 6C2.41438 4.4087 3.12685 2.88258 4.39505 1.75736C5.66325 0.632141 7.3833 0 9.17681 0C10.9703 0 12.6904 0.632141 13.9586 1.75736C15.2268 2.88258 15.9392 4.4087 15.9392 6C15.9392 7.5913 15.2268 9.11742 13.9586 10.2426C12.6904 11.3679 10.9703 12 9.17681 12C7.3833 12 5.66325 11.3679 4.39505 10.2426C3.12685 9.11742 2.41438 7.5913 2.41438 6V6ZM19.3205 9C19.6194 9 19.9061 9.10536 20.1174 9.29289C20.3288 9.48043 20.4475 9.73478 20.4475 10V11H21.5746C21.8735 11 22.1602 11.1054 22.3716 11.2929C22.5829 11.4804 22.7017 11.7348 22.7017 12C22.7017 12.2652 22.5829 12.5196 22.3716 12.7071C22.1602 12.8946 21.8735 13 21.5746 13H20.4475V14C20.4475 14.2652 20.3288 14.5196 20.1174 14.7071C19.9061 14.8946 19.6194 15 19.3205 15C19.0215 15 18.7349 14.8946 18.5235 14.7071C18.3121 14.5196 18.1934 14.2652 18.1934 14V13H17.0663C16.7674 13 16.4807 12.8946 16.2694 12.7071C16.058 12.5196 15.9392 12.2652 15.9392 12C15.9392 11.7348 16.058 11.4804 16.2694 11.2929C16.4807 11.1054 16.7674 11 17.0663 11H18.1934V10C18.1934 9.73478 18.3121 9.48043 18.5235 9.29289C18.7349 9.10536 19.0215 9 19.3205 9ZM5.23206 16C3.81195 16 2.41438 17.213 2.41438 19C2.41438 19.2652 2.29563 19.5196 2.08426 19.7071C1.8729 19.8946 1.58622 20 1.2873 20C0.988386 20 0.701711 19.8946 0.490344 19.7071C0.278977 19.5196 0.160233 19.2652 0.160233 19C0.160233 16.368 2.29378 14 5.23206 14H13.1216C16.0598 14 18.1934 16.368 18.1934 19C18.1934 19.2652 18.0746 19.5196 17.8633 19.7071C17.6519 19.8946 17.3652 20 17.0663 20C16.7674 20 16.4807 19.8946 16.2694 19.7071C16.058 19.5196 15.9392 19.2652 15.9392 19C15.9392 17.213 14.5417 16 13.1216 16H5.23206Z" />
</svg>