<svg width="20" height="20" viewBox="0 0 20 20" fill="none" xmlns="http://www.w3.org/2000/svg">
    <path
        d="M12.7069 10L17.9471 4.75985C18.6946 4.01235 18.6946 2.80043 17.9471 2.05293C17.1995 1.30543 15.9877 1.30543 15.2402 2.05293L10 7.29309L4.75985 2.05293C4.01235 1.30543 2.80043 1.30543 2.05293 2.05293C1.30543 2.80043 1.30543 4.01235 2.05293 4.75985L7.29309 10L2.05293 15.2402C1.30543 15.9877 1.30543 17.1996 2.05293 17.9471C2.42668 18.3208 2.91653 18.5077 3.40637 18.5077C3.89622 18.5077 4.3861 18.3208 4.75981 17.9471L10 12.7069L15.2402 17.9471C15.6139 18.3208 16.1038 18.5077 16.5936 18.5077C17.0834 18.5077 17.5733 18.3208 17.947 17.9471C18.6945 17.1996 18.6945 15.9877 17.947 15.2402L12.7069 10Z"
        fill="#9FA9FF" />
</svg>