<svg width="21" height="22" viewBox="0 0 21 22" fill="none" xmlns="http://www.w3.org/2000/svg">
    <path
        d="M6.28365 2.33355H6.0702C6.18759 2.33355 6.28365 2.23843 6.28365 2.12217V2.33355H14.3947V2.12217C14.3947 2.23843 14.4908 2.33355 14.6082 2.33355H14.3947V4.23595H16.3158V2.12217C16.3158 1.18947 15.55 0.431152 14.6082 0.431152H6.0702C5.12835 0.431152 4.3626 1.18947 4.3626 2.12217V4.23595H6.28365V2.33355ZM19.731 4.23595H0.947397C0.475139 4.23595 0.0935974 4.61379 0.0935974 5.08146V5.92697C0.0935974 6.04323 0.18965 6.13835 0.307047 6.13835H1.91859L2.57762 19.9572C2.62031 20.8582 3.37272 21.5689 4.28255 21.5689H16.3958C17.3083 21.5689 18.0581 20.8608 18.1008 19.9572L18.7598 6.13835H20.3713C20.4887 6.13835 20.5848 6.04323 20.5848 5.92697V5.08146C20.5848 4.61379 20.2033 4.23595 19.731 4.23595ZM16.1904 19.6665H4.488L3.84231 6.13835H16.8361L16.1904 19.6665Z"
        fill="#D84D25" />
</svg>