<svg width="23" height="23" viewBox="0 0 23 23" fill="none" xmlns="http://www.w3.org/2000/svg">
    <path
        d="M16.0873 4.56871L18.4985 6.9553L16.0873 4.56871ZM17.6378 2.4662L11.1182 8.92252C10.7814 9.25565 10.5516 9.68008 10.458 10.1423L9.85574 13.1275L12.8702 12.53C13.337 12.4376 13.765 12.211 14.102 11.8773L20.6216 5.42098C20.8175 5.22697 20.9729 4.99664 21.0789 4.74315C21.185 4.48966 21.2395 4.21797 21.2395 3.94359C21.2395 3.66922 21.185 3.39753 21.0789 3.14403C20.9729 2.89054 20.8175 2.66022 20.6216 2.4662C20.4257 2.27219 20.1931 2.11829 19.9371 2.01329C19.6811 1.90829 19.4068 1.85425 19.1297 1.85425C18.8526 1.85425 18.5783 1.90829 18.3223 2.01329C18.0663 2.11829 17.8338 2.27219 17.6378 2.4662V2.4662Z"
        stroke="#1FAB61" stroke-width="2" stroke-linecap="round" stroke-linejoin="round" />
    <path
        d="M18.9629 15.3821V18.7642C18.9629 19.3621 18.723 19.9356 18.2961 20.3585C17.8691 20.7813 17.29 21.0189 16.6861 21.0189H4.16373C3.55989 21.0189 2.98077 20.7813 2.55379 20.3585C2.12681 19.9356 1.88693 19.3621 1.88693 18.7642V6.36334C1.88693 5.76536 2.12681 5.19186 2.55379 4.76903C2.98077 4.34619 3.55989 4.10864 4.16373 4.10864H7.57893"
        stroke="#1FAB61" stroke-width="2" stroke-linecap="round" stroke-linejoin="round" />
</svg>